<?xml version="1.0" encoding="UTF-8" standalone="no"?>
<!-- Generator: Adobe Illustrator 12.0.0, SVG Export Plug-In . SVG Version: 6.00 Build 51448)  -->

<svg
   version="1.1"
   id="Layer_1"
   width="122.806"
   height="120.438"
   viewBox="0 0 122.806 120.438"
   overflow="visible"
   enable-background="new 0 0 122.806 120.438"
   xml:space="preserve"
   sodipodi:docname="immich.svg"
   inkscape:version="1.3 (0e150ed, 2023-07-21)"
   xmlns:inkscape="http://www.inkscape.org/namespaces/inkscape"
   xmlns:sodipodi="http://sodipodi.sourceforge.net/DTD/sodipodi-0.dtd"
   xmlns="http://www.w3.org/2000/svg"
   xmlns:svg="http://www.w3.org/2000/svg"><defs
   id="defs11" /><sodipodi:namedview
   id="namedview11"
   pagecolor="#00ffff"
   bordercolor="#666666"
   borderopacity="1.0"
   inkscape:showpageshadow="2"
   inkscape:pageopacity="0.0"
   inkscape:pagecheckerboard="0"
   inkscape:deskcolor="#d1d1d1"
   inkscape:zoom="2.3451623"
   inkscape:cx="61.403"
   inkscape:cy="60.336976"
   inkscape:window-width="1366"
   inkscape:window-height="699"
   inkscape:window-x="0"
   inkscape:window-y="0"
   inkscape:window-maximized="1"
   inkscape:current-layer="Layer_1" />&#10;<path
   id="path1"
   d="M 61.595703 0 C 39.428725 1.1842367e-15 31.668922 7.5827727 31.669922 14.634766 C 31.669922 16.507764 38.193359 25.935547 38.193359 25.935547 C 38.193359 25.935547 40.845724 17.332031 61.595703 17.332031 C 82.345682 17.332031 84.142578 25.957031 84.142578 25.957031 C 84.142578 25.957031 91.063453 16.553014 91.064453 14.666016 C 91.064453 7.7490225 83.762681 0 61.595703 0 z M 23.154297 17.980469 C 16.919684 18.134245 9.1557129 24.142393 3.3515625 41.921875 C -3.5284306 62.994854 1.2716161 72.726065 7.9746094 74.914062 C 9.7556076 75.495062 20.744141 72.21875 20.744141 72.21875 C 20.744141 72.21875 13.387131 67.028715 19.828125 47.302734 C 26.268119 27.576754 35.025391 28.544922 35.025391 28.544922 C 35.025391 28.544922 28.232451 19.046937 26.439453 18.460938 C 25.411954 18.125469 24.308855 17.951992 23.154297 17.980469 z M 99.173828 18.167969 C 98.255665 18.194353 97.370624 18.351719 96.53125 18.621094 C 94.747252 19.194093 87.767578 28.289062 87.767578 28.289062 C 87.767578 28.289062 96.767334 28.185426 103.11133 47.941406 C 109.45532 67.697386 101.79297 72.044922 101.79297 72.044922 C 101.79297 72.044922 112.86216 75.759593 114.66016 75.183594 C 121.24615 73.068596 126.39123 63.748557 119.61523 42.642578 C 113.68537 24.174847 105.60097 17.983276 99.173828 18.167969 z M 61.662109 19.816406 C 56.329115 19.816406 51.23087 20.822299 46.546875 22.654297 L 46.527344 22.671875 C 38.624352 25.790872 41.28125 30.957031 41.28125 30.957031 C 41.65825 31.94303 42.600704 32.582031 43.720703 32.582031 C 45.170702 32.582031 46.345703 31.40603 46.345703 29.957031 C 46.345703 28.656033 45.394343 27.583953 44.152344 27.376953 L 44.169922 27.357422 C 44.169922 27.357422 40.991341 26.388731 53.736328 22.677734 L 53.701172 22.677734 C 56.276169 22.144735 58.943737 21.861328 61.677734 21.861328 C 64.533732 21.861328 67.313096 22.182672 69.996094 22.763672 C 82.382081 26.402668 78.695313 27.357422 78.695312 27.357422 L 78.712891 27.376953 C 77.469892 27.583953 76.519531 28.656033 76.519531 29.957031 C 76.519531 31.40603 77.695533 32.582031 79.144531 32.582031 C 80.26353 32.582031 81.212844 31.88053 81.589844 30.894531 L 81.621094 30.931641 C 81.621094 30.930641 84.658242 25.748763 76.65625 22.634766 L 76.470703 22.550781 C 71.803708 20.734783 66.972104 19.816406 61.662109 19.816406 z M 61.523438 24.458984 C 58.493441 24.458984 56.037109 26.914362 56.037109 29.943359 C 56.037109 30.744359 56.213485 31.504454 56.521484 32.189453 C 55.615485 31.528454 54.502921 31.132813 53.294922 31.132812 C 50.264925 31.132812 47.808594 33.588191 47.808594 36.617188 C 47.808594 37.522187 48.030922 38.375907 48.419922 39.128906 L 48.410156 39.134766 L 48.470703 39.232422 C 48.558703 39.395422 48.655766 39.552078 48.759766 39.705078 L 57.177734 53.435547 C 57.974734 52.933547 58.860548 52.560469 59.810547 52.355469 L 59.810547 44.919922 C 59.810547 42.952924 60.510048 42.216797 61.373047 42.216797 C 62.236046 42.216797 62.9375 42.952924 62.9375 44.919922 L 62.9375 52.289062 L 62.939453 52.289062 C 63.927452 52.455062 64.855407 52.795297 65.691406 53.279297 L 74.269531 39.724609 C 74.877531 38.84161 75.236328 37.770186 75.236328 36.617188 C 75.236328 33.588191 72.78095 31.132813 69.751953 31.132812 C 68.543954 31.132812 67.431437 31.528454 66.523438 32.189453 C 66.833437 31.503454 67.007812 30.744359 67.007812 29.943359 C 67.007812 26.914362 64.552434 24.458984 61.523438 24.458984 z M 35.583984 31.269531 C 33.97294 31.224026 31.873232 32.001862 29.498047 34.912109 L 29.361328 35.064453 C 26.194331 38.943449 23.832311 43.256646 22.195312 48.306641 C 20.550314 53.381636 19.936328 58.540505 20.236328 63.5625 L 20.246094 63.583984 C 20.777093 72.063976 26.513672 71.128906 26.513672 71.128906 C 27.567671 71.074906 28.465547 70.374546 28.810547 69.310547 C 29.257546 67.931548 28.499092 66.452859 27.121094 66.005859 C 25.882095 65.60586 24.570234 66.175923 23.990234 67.294922 L 23.976562 67.273438 C 23.976562 67.273438 22.07561 69.998455 22.474609 56.730469 L 22.462891 56.763672 C 22.74989 54.149674 23.300579 51.525779 24.142578 48.925781 C 25.022577 46.207784 26.186408 43.661107 27.566406 41.287109 C 34.846399 30.62712 34.617188 34.427734 34.617188 34.427734 L 34.640625 34.417969 C 34.454625 35.663968 35.182923 36.899782 36.419922 37.300781 C 37.79892 37.746781 39.279563 36.989327 39.726562 35.611328 C 40.071562 34.547329 39.694046 33.428624 38.873047 32.765625 L 38.917969 32.746094 C 38.918531 32.746656 37.655327 31.328038 35.583984 31.269531 z M 87.369141 31.283203 C 85.273268 31.262479 83.980469 32.570312 83.980469 32.570312 C 83.16047 33.234312 82.84536 34.327626 83.193359 35.390625 C 83.643359 36.768624 85.125908 37.520312 86.503906 37.070312 C 87.739905 36.666313 88.46539 35.431546 88.275391 34.185547 L 88.298828 34.193359 C 88.298828 34.193359 88.232757 30.873948 95.71875 41.835938 L 95.707031 41.802734 C 97.01403 44.084732 98.111938 46.530909 98.960938 49.128906 C 99.848937 51.843904 100.4055 54.585409 100.6875 57.316406 C 101.0765 70.219393 99.023437 67.013672 99.023438 67.013672 L 99.009766 67.033203 C 98.427766 65.916204 97.111999 65.346954 95.875 65.751953 C 94.497001 66.201953 93.745313 67.684501 94.195312 69.0625 C 94.543312 70.125499 95.506548 70.809328 96.560547 70.861328 L 96.533203 70.902344 C 96.534203 70.902344 102.40391 72.183366 102.87891 63.609375 L 102.90039 63.40625 C 103.17739 58.405255 102.54839 53.527464 100.90039 48.480469 C 99.244392 43.410474 96.704809 38.877137 93.507812 34.994141 L 93.486328 34.982422 C 91.11508 32.119425 88.999264 31.299322 87.369141 31.283203 z M 40.785156 40.384766 C 38.446387 40.405011 36.292156 41.930862 35.582031 44.287109 C 35.232032 45.443108 35.29111 46.624595 35.662109 47.683594 C 35.09511 47.190594 34.418343 46.800312 33.652344 46.570312 C 30.753347 45.695313 27.691405 47.337331 26.816406 50.236328 C 25.941407 53.137325 27.582425 56.19922 30.482422 57.074219 C 31.248421 57.305219 32.027438 57.356766 32.773438 57.259766 C 31.878438 57.936765 31.178078 58.887923 30.830078 60.044922 C 29.955079 62.943919 31.596097 66.003907 34.496094 66.878906 C 35.365093 67.140906 36.244126 67.174531 37.078125 67.019531 L 37.080078 67.03125 L 37.191406 67 C 37.373406 66.963 37.551563 66.914375 37.726562 66.859375 L 53.634766 62.677734 C 53.429766 61.957735 53.3125 61.199062 53.3125 60.414062 C 53.3125 60.281063 53.326031 60.152484 53.332031 60.021484 L 45.912109 57.783203 C 44.029111 57.216204 43.526391 56.334812 43.775391 55.507812 C 44.02539 54.681813 44.931455 54.221063 46.814453 54.789062 L 54.068359 56.978516 C 54.468359 56.108516 55.011829 55.316624 55.673828 54.640625 L 45.113281 42.443359 C 44.443282 41.60536 43.522921 40.95314 42.419922 40.619141 C 41.875985 40.455078 41.324872 40.380094 40.785156 40.384766 z M 82.443359 40.580078 C 81.903799 40.570535 81.353843 40.641594 80.808594 40.800781 C 79.939595 41.054781 79.183312 41.506797 78.570312 42.091797 L 78.5625 42.082031 L 78.484375 42.167969 C 78.353375 42.298969 78.230281 42.434172 78.113281 42.576172 L 67.300781 54.492188 C 67.972781 55.144187 68.531172 55.91272 68.951172 56.761719 L 76.203125 54.646484 C 78.092123 54.095485 78.993375 54.561626 79.234375 55.390625 C 79.476375 56.219624 78.966123 57.097438 77.078125 57.648438 L 69.78125 59.777344 C 69.79725 59.989344 69.8125 60.201969 69.8125 60.417969 C 69.8125 61.154968 69.70739 61.864923 69.525391 62.544922 L 85.238281 67.070312 C 86.25628 67.407312 87.383235 67.452859 88.490234 67.130859 C 91.398231 66.28186 93.068702 63.235122 92.220703 60.328125 C 91.882703 59.168126 91.191733 58.21039 90.302734 57.525391 C 91.046734 57.629391 91.825751 57.586328 92.59375 57.361328 C 95.502747 56.513329 97.173218 53.467544 96.324219 50.560547 C 95.47622 47.65155 92.429481 45.981079 89.521484 46.830078 C 88.752485 47.054078 88.074953 47.434829 87.501953 47.923828 C 87.882953 46.868829 87.949328 45.689296 87.611328 44.529297 C 86.921516 42.166549 84.781456 40.62143 82.443359 40.580078 z M 61.5625 55.669922 A 5.2459998 5.2459998 0 0 0 56.316406 60.916016 A 5.2459998 5.2459998 0 0 0 61.5625 66.162109 A 5.2459998 5.2459998 0 0 0 66.808594 60.916016 A 5.2459998 5.2459998 0 0 0 61.5625 55.669922 z M 68.929688 64.115234 C 68.532688 64.904234 68.01939 65.625141 67.400391 66.244141 L 71.875 72.755859 C 72.988999 74.376858 72.829187 75.378188 72.117188 75.867188 C 71.405188 76.355187 70.411827 76.146389 69.298828 74.525391 L 64.814453 67.998047 C 64.025454 68.338047 63.16939 68.552906 62.275391 68.628906 L 62.900391 85.222656 C 62.899391 86.294655 63.211282 87.380079 63.863281 88.330078 C 65.57828 90.827076 68.994237 91.460139 71.490234 89.744141 C 72.486233 89.059141 73.179735 88.103874 73.552734 87.046875 C 73.686734 87.785874 73.971782 88.512876 74.425781 89.171875 C 76.14078 91.668873 79.555784 92.302889 82.050781 90.587891 C 84.548779 88.870892 85.181795 85.456935 83.466797 82.960938 C 83.013797 82.300938 82.437921 81.772812 81.794922 81.382812 C 82.915921 81.414812 84.058735 81.110781 85.052734 80.425781 C 87.550732 78.710783 88.183748 75.295826 86.46875 72.798828 C 85.954751 72.052829 85.289968 71.477171 84.542969 71.076172 L 84.546875 71.064453 L 84.443359 71.019531 C 84.27736 70.934531 84.108547 70.859969 83.935547 70.792969 L 68.929688 64.115234 z M 54.199219 64.121094 L 38.892578 70.234375 C 37.881579 70.592375 36.965062 71.249642 36.289062 72.181641 C 34.513064 74.636638 35.061627 78.066799 37.515625 79.841797 C 38.494624 80.550796 39.627048 80.882906 40.748047 80.878906 C 40.097048 81.252906 39.509015 81.766063 39.041016 82.414062 C 37.264017 84.86706 37.812627 88.297267 40.265625 90.072266 C 42.721623 91.848264 46.151736 91.300701 47.927734 88.845703 C 48.397734 88.197704 48.698563 87.479187 48.851562 86.742188 C 49.197562 87.809186 49.868657 88.782235 50.847656 89.490234 C 53.300654 91.266233 56.729861 90.718669 58.505859 88.263672 C 59.036859 87.529673 59.355422 86.70814 59.482422 85.869141 L 59.494141 85.871094 L 59.503906 85.757812 C 59.527906 85.572813 59.540922 85.389078 59.544922 85.205078 L 60.816406 68.625 C 59.947407 68.547 59.115702 68.337718 58.345703 68.011719 L 53.648438 74.501953 C 52.495439 76.095952 51.498827 76.280437 50.798828 75.773438 C 50.099829 75.266438 49.962236 74.260967 51.115234 72.667969 L 55.75 66.267578 C 55.123001 65.644579 54.601218 64.918093 54.199219 64.121094 z M 28.78125 73.044922 C 28.262501 73.030422 27.744828 73.169172 27.298828 73.451172 L 27.296875 73.404297 C 27.294875 73.403297 21.759739 75.732539 26.302734 83.019531 L 26.402344 83.197266 C 29.051341 87.447261 32.371051 91.075863 36.623047 94.255859 C 40.894043 97.450856 45.580692 99.697158 50.429688 101.03516 L 50.453125 101.0332 C 58.651117 103.2682 59.617188 97.537109 59.617188 97.537109 C 59.906187 96.52211 59.534671 95.447343 58.638672 94.777344 C 57.476673 93.909345 55.831843 94.146642 54.964844 95.306641 C 54.185845 96.34964 54.301829 97.777501 55.173828 98.6875 L 55.150391 98.693359 C 55.150391 98.693359 57.114534 101.37389 44.685547 96.712891 L 44.712891 96.732422 C 42.330893 95.617423 40.026888 94.248326 37.837891 92.611328 C 35.549893 90.90133 33.516842 88.978248 31.714844 86.90625 C 23.974851 76.57426 27.498047 78.017578 27.498047 78.017578 L 27.496094 77.992188 C 28.615093 78.570187 30.020829 78.28028 30.798828 77.238281 C 31.667827 76.077282 31.428577 74.430499 30.267578 73.5625 C 29.819579 73.2275 29.299999 73.059422 28.78125 73.044922 z M 93.986328 73.958984 C 93.477829 73.969109 92.962906 74.133125 92.503906 74.453125 C 91.315907 75.284124 91.026423 76.922376 91.857422 78.109375 C 92.603421 79.175374 93.996814 79.511749 95.132812 78.96875 L 95.132812 78.992188 C 95.132812 78.992188 98.291648 77.965604 89.972656 88.308594 L 90 88.291016 C 88.195002 90.204014 86.171638 91.963298 83.931641 93.529297 C 81.591643 95.166295 79.128701 96.495642 76.595703 97.556641 C 64.360715 101.67064 66.833984 98.777344 66.833984 98.777344 L 66.810547 98.769531 C 67.709546 97.887532 67.872952 96.463436 67.126953 95.398438 C 66.296954 94.210439 64.659655 93.919954 63.472656 94.751953 C 62.554657 95.392952 62.1805 96.51311 62.4375 97.537109 L 62.390625 97.523438 C 62.390625 97.523438 62.866946 103.51151 71.210938 101.47852 L 71.410156 101.43945 C 76.276151 100.25445 80.762286 98.239263 85.113281 95.197266 C 89.486277 92.141269 93.087956 88.396933 95.876953 84.210938 L 95.882812 84.1875 C 100.57281 77.102507 95.433594 74.390625 95.433594 74.390625 C 94.996594 74.094125 94.494828 73.948859 93.986328 73.958984 z M 22.132812 75.757812 C 22.132812 75.757813 10.970702 79.18522 9.8457031 80.699219 C 5.7247072 86.255213 6.9714553 96.828123 24.773438 110.03711 C 42.57442 123.2461 53.326348 121.78018 57.527344 116.11719 C 58.643343 114.61219 59.021484 103.1543 59.021484 103.1543 C 59.021484 103.1543 51.765546 108.48218 35.101562 96.117188 C 18.437579 83.7532 22.132812 75.757812 22.132812 75.757812 z M 100.79688 75.904297 C 100.79687 75.904297 103.71353 84.421872 86.935547 96.630859 C 70.157564 108.83985 63.630859 102.92383 63.630859 102.92383 C 63.630859 102.92383 63.566735 114.6 64.677734 116.125 C 68.74773 121.71799 79.209784 123.68752 97.134766 110.64453 C 115.05775 97.601544 116.87165 86.904119 112.72266 81.203125 C 111.61966 79.688127 100.79688 75.904297 100.79688 75.904297 z "
   style="fill:#ffffff;fill-opacity:0.80000001" />&#10;&#10;&#10;&#10;&#10;&#10;&#10;&#10;</svg>
