<?xml version="1.0" encoding="UTF-8" standalone="no"?>
<!-- Generator: Adobe Illustrator 12.0.0, SVG Export Plug-In . SVG Version: 6.00 Build 51448)  -->

<svg
   version="1.1"
   id="Layer_1"
   width="122.806"
   height="120.438"
   viewBox="0 0 122.806 120.438"
   overflow="visible"
   enable-background="new 0 0 122.806 120.438"
   xml:space="preserve"
   sodipodi:docname="immich-paused.svg"
   inkscape:version="1.3 (0e150ed, 2023-07-21)"
   xmlns:inkscape="http://www.inkscape.org/namespaces/inkscape"
   xmlns:sodipodi="http://sodipodi.sourceforge.net/DTD/sodipodi-0.dtd"
   xmlns="http://www.w3.org/2000/svg"
   xmlns:svg="http://www.w3.org/2000/svg"><defs
   id="defs11" /><sodipodi:namedview
   id="namedview11"
   pagecolor="#00ffff"
   bordercolor="#666666"
   borderopacity="1.0"
   inkscape:showpageshadow="2"
   inkscape:pageopacity="0.0"
   inkscape:pagecheckerboard="0"
   inkscape:deskcolor="#d1d1d1"
   inkscape:zoom="1.1725812"
   inkscape:cx="50.316346"
   inkscape:cy="55.006853"
   inkscape:window-width="1366"
   inkscape:window-height="699"
   inkscape:window-x="0"
   inkscape:window-y="0"
   inkscape:window-maximized="1"
   inkscape:current-layer="Layer_1" />&#10;<path
   id="path1"
   style="display:inline;fill:#ffffff;fill-opacity:0.53247279"
   d="M 61.595703 0 C 39.428813 0 31.668922 7.5827995 31.669922 14.634766 C 31.669922 16.507756 38.193359 25.935547 38.193359 25.935547 C 38.193359 25.935547 40.845808 17.332031 61.595703 17.332031 C 82.345598 17.332031 84.142578 25.957031 84.142578 25.957031 C 84.142578 25.957031 91.063453 16.553006 91.064453 14.666016 C 91.064453 7.7490485 83.762593 5.9211835e-15 61.595703 0 z M 23.154297 17.980469 C 16.919708 18.134245 9.1556897 24.142465 3.3515625 41.921875 C -3.528403 62.99477 1.2716429 72.726077 7.9746094 74.914062 C 9.7556004 75.495062 20.744141 72.21875 20.744141 72.21875 C 20.744141 72.21875 13.387155 67.028639 19.828125 47.302734 C 26.268095 27.576834 35.025391 28.544922 35.025391 28.544922 C 35.025391 28.544922 28.232443 19.046933 26.439453 18.460938 C 25.411958 18.125469 24.308851 17.951992 23.154297 17.980469 z M 99.173828 18.167969 C 98.255669 18.194349 97.37062 18.351719 96.53125 18.621094 C 94.74726 19.194089 87.767578 28.289063 87.767578 28.289062 C 87.767578 28.289062 96.76735 28.185506 103.11133 47.941406 C 104.48084 52.206229 105.18701 55.730644 105.47266 58.664062 L 122.75977 58.664062 C 122.60326 54.31172 121.66579 49.02964 119.61523 42.642578 C 113.68541 24.174923 105.60093 17.983276 99.173828 18.167969 z M 61.662109 19.816406 C 56.329139 19.816406 51.23085 20.822307 46.546875 22.654297 L 46.527344 22.671875 C 38.624384 25.79086 41.28125 30.957031 41.28125 30.957031 C 41.65825 31.943026 42.600708 32.582031 43.720703 32.582031 C 45.170698 32.582031 46.345703 31.406026 46.345703 29.957031 C 46.345703 28.656041 45.394339 27.583953 44.152344 27.376953 L 44.169922 27.357422 C 44.169922 27.357422 40.991393 26.388719 53.736328 22.677734 L 53.701172 22.677734 C 56.276157 22.144739 58.943749 21.861328 61.677734 21.861328 C 64.533724 21.861328 67.313104 22.182672 69.996094 22.763672 C 82.382029 26.402652 78.695313 27.357422 78.695312 27.357422 L 78.712891 27.376953 C 77.469896 27.583953 76.519531 28.656041 76.519531 29.957031 C 76.519531 31.406026 77.695541 32.582031 79.144531 32.582031 C 80.263526 32.582031 81.212844 31.880526 81.589844 30.894531 L 81.621094 30.931641 C 81.621094 30.930641 84.65821 25.748751 76.65625 22.634766 L 76.470703 22.550781 C 71.803728 20.734784 66.972084 19.816406 61.662109 19.816406 z M 61.523438 24.458984 C 58.493453 24.458984 56.037109 26.914374 56.037109 29.943359 C 56.037109 30.744359 56.213489 31.504458 56.521484 32.189453 C 55.615489 31.528458 54.502917 31.132813 53.294922 31.132812 C 50.264937 31.132812 47.808594 33.588203 47.808594 36.617188 C 47.808594 37.522183 48.030922 38.375911 48.419922 39.128906 L 48.410156 39.134766 L 48.470703 39.232422 C 48.558703 39.395422 48.655766 39.552078 48.759766 39.705078 L 57.177734 53.435547 C 57.974734 52.933547 58.860552 52.560469 59.810547 52.355469 L 59.810547 44.919922 C 59.810547 42.952932 60.510052 42.216797 61.373047 42.216797 C 62.236042 42.216797 62.9375 42.952932 62.9375 44.919922 L 62.9375 52.289062 L 62.939453 52.289062 C 63.927448 52.455062 64.855411 52.795297 65.691406 53.279297 L 74.269531 39.724609 C 74.877531 38.841614 75.236328 37.770178 75.236328 36.617188 C 75.236328 33.588203 72.780938 31.132813 69.751953 31.132812 C 68.543958 31.132812 67.431433 31.528458 66.523438 32.189453 C 66.833433 31.503458 67.007812 30.744359 67.007812 29.943359 C 67.007812 26.914374 64.552418 24.458984 61.523438 24.458984 z M 35.583984 31.269531 C 33.972948 31.224021 31.87322 32.001874 29.498047 34.912109 L 29.361328 35.064453 C 26.194343 38.943433 23.832307 43.256666 22.195312 48.306641 C 20.550322 53.381616 19.936328 58.540525 20.236328 63.5625 L 20.246094 63.583984 C 20.777089 72.063944 26.513672 71.128906 26.513672 71.128906 C 27.567667 71.074906 28.465547 70.374542 28.810547 69.310547 C 29.257542 67.931552 28.499084 66.452859 27.121094 66.005859 C 25.882099 65.605864 24.570234 66.175927 23.990234 67.294922 L 23.976562 67.273438 C 23.976562 67.273438 22.075614 69.998399 22.474609 56.730469 L 22.462891 56.763672 C 22.749886 54.149682 23.300583 51.525771 24.142578 48.925781 C 25.022573 46.207796 26.186416 43.661099 27.566406 41.287109 C 34.846371 30.627164 34.617188 34.427734 34.617188 34.427734 L 34.640625 34.417969 C 34.454625 35.663964 35.182927 36.899786 36.419922 37.300781 C 37.798912 37.746781 39.279567 36.989323 39.726562 35.611328 C 40.071562 34.547333 39.694039 33.42862 38.873047 32.765625 L 38.917969 32.746094 C 38.918531 32.746656 37.655319 31.328038 35.583984 31.269531 z M 87.369141 31.283203 C 85.273276 31.262483 83.980469 32.570312 83.980469 32.570312 C 83.160474 33.234312 82.845364 34.32763 83.193359 35.390625 C 83.643359 36.76862 85.125916 37.520312 86.503906 37.070312 C 87.739901 36.666317 88.465386 35.431542 88.275391 34.185547 L 88.298828 34.193359 C 88.298828 34.193359 88.232789 30.873988 95.71875 41.835938 L 95.707031 41.802734 C 97.014026 44.084724 98.111938 46.530921 98.960938 49.128906 C 99.848933 51.843896 100.4055 54.585421 100.6875 57.316406 C 100.7034 57.843838 100.69399 58.195133 100.70117 58.664062 L 102.85156 58.664062 C 102.64016 55.286609 102.02434 51.922554 100.90039 48.480469 C 99.244396 43.410494 96.704797 38.877121 93.507812 34.994141 L 93.486328 34.982422 C 91.115088 32.119437 88.999256 31.299322 87.369141 31.283203 z M 40.785156 40.384766 C 38.446399 40.405016 36.292156 41.930874 35.582031 44.287109 C 35.232036 45.443104 35.29111 46.624599 35.662109 47.683594 C 35.095114 47.190594 34.418339 46.800312 33.652344 46.570312 C 30.753359 45.695317 27.691401 47.337343 26.816406 50.236328 C 25.941411 53.137313 27.582437 56.199224 30.482422 57.074219 C 31.248417 57.305219 32.027438 57.356766 32.773438 57.259766 C 31.878438 57.936761 31.178078 58.887927 30.830078 60.044922 C 29.955083 62.943907 31.596109 66.003911 34.496094 66.878906 C 35.365089 67.140906 36.24413 67.174531 37.078125 67.019531 L 37.080078 67.03125 L 37.191406 67 C 37.373406 66.963 37.551567 66.91438 37.726562 66.859375 L 53.634766 62.677734 C 53.429766 61.957739 53.3125 61.199062 53.3125 60.414062 C 53.3125 60.281067 53.326031 60.152484 53.332031 60.021484 L 45.912109 57.783203 C 44.029119 57.216208 43.526391 56.334812 43.775391 55.507812 C 44.025386 54.681817 44.931463 54.221067 46.814453 54.789062 L 54.068359 56.978516 C 54.468359 56.108516 55.011833 55.31662 55.673828 54.640625 L 45.113281 42.443359 C 44.443286 41.605364 43.522917 40.953136 42.419922 40.619141 C 41.875985 40.455078 41.324872 40.380094 40.785156 40.384766 z M 82.443359 40.580078 C 81.903803 40.570578 81.353839 40.641598 80.808594 40.800781 C 79.939599 41.054781 79.183312 41.506797 78.570312 42.091797 L 78.5625 42.082031 L 78.484375 42.167969 C 78.353375 42.298969 78.230281 42.434172 78.113281 42.576172 L 67.300781 54.492188 C 67.972781 55.144183 68.531172 55.912724 68.951172 56.761719 L 76.203125 54.646484 C 78.092115 54.095489 78.993375 54.561627 79.234375 55.390625 C 79.476375 56.21962 78.966115 57.097438 77.078125 57.648438 L 69.78125 59.777344 C 69.79725 59.989344 69.8125 60.201969 69.8125 60.417969 C 69.8125 61.154964 69.707386 61.864927 69.525391 62.544922 L 79.521484 65.423828 L 79.521484 58.386719 L 91.171875 58.386719 C 90.908993 58.069998 90.625069 57.773757 90.302734 57.525391 C 91.046734 57.629391 91.825755 57.586331 92.59375 57.361328 C 95.502735 56.513333 97.173214 53.467532 96.324219 50.560547 C 95.476224 47.651562 92.429469 45.981083 89.521484 46.830078 C 88.752489 47.054078 88.074953 47.434833 87.501953 47.923828 C 87.882953 46.868833 87.949328 45.689292 87.611328 44.529297 C 86.92152 42.166557 84.781448 40.62143 82.443359 40.580078 z M 61.5625 55.669922 A 5.2459998 5.2459998 0 0 0 56.316406 60.916016 A 5.2459998 5.2459998 0 0 0 61.5625 66.162109 A 5.2459998 5.2459998 0 0 0 66.808594 60.916016 A 5.2459998 5.2459998 0 0 0 61.5625 55.669922 z M 68.929688 64.115234 C 68.532688 64.904234 68.019386 65.625141 67.400391 66.244141 L 71.875 72.755859 C 72.988995 74.376854 72.829183 75.378188 72.117188 75.867188 C 71.405188 76.355183 70.411823 76.146381 69.298828 74.525391 L 64.814453 67.998047 C 64.025458 68.338047 63.169386 68.552906 62.275391 68.628906 L 62.900391 85.222656 C 62.899391 86.294651 63.211286 87.380083 63.863281 88.330078 C 65.578276 90.827068 68.994249 91.460131 71.490234 89.744141 C 72.486229 89.059141 73.179739 88.10387 73.552734 87.046875 C 73.686734 87.78587 73.971786 88.51288 74.425781 89.171875 C 75.60486 90.888584 77.586736 91.698484 79.521484 91.496094 L 79.521484 68.828125 L 68.929688 64.115234 z M 54.199219 64.121094 L 38.892578 70.234375 C 37.881583 70.592375 36.965062 71.249646 36.289062 72.181641 C 34.513072 74.636626 35.061635 78.066807 37.515625 79.841797 C 38.49462 80.550792 39.627052 80.882906 40.748047 80.878906 C 40.097052 81.252906 39.509011 81.766067 39.041016 82.414062 C 37.264021 84.867052 37.812635 88.297271 40.265625 90.072266 C 42.721615 91.848256 46.151744 91.300693 47.927734 88.845703 C 48.397734 88.197708 48.698567 87.479183 48.851562 86.742188 C 49.197562 87.809178 49.868661 88.782239 50.847656 89.490234 C 53.300646 91.266229 56.729869 90.718657 58.505859 88.263672 C 59.036859 87.529677 59.355422 86.708136 59.482422 85.869141 L 59.494141 85.871094 L 59.503906 85.757812 C 59.527906 85.572817 59.540922 85.389078 59.544922 85.205078 L 60.816406 68.625 C 59.947411 68.547 59.115698 68.337714 58.345703 68.011719 L 53.648438 74.501953 C 52.495443 76.095948 51.498823 76.280433 50.798828 75.773438 C 50.099833 75.266438 49.962244 74.260959 51.115234 72.667969 L 55.75 66.267578 C 55.123005 65.644583 54.601214 64.918089 54.199219 64.121094 z M 28.78125 73.044922 C 28.262505 73.030422 27.744828 73.169172 27.298828 73.451172 L 27.296875 73.404297 C 27.294875 73.403297 21.759759 75.732571 26.302734 83.019531 L 26.402344 83.197266 C 29.051329 87.447241 32.371067 91.075879 36.623047 94.255859 C 40.894027 97.450844 45.580708 99.69714 50.429688 101.03516 L 50.453125 101.0332 C 58.651085 103.2682 59.617187 97.537109 59.617188 97.537109 C 59.906183 96.522114 59.534665 95.447339 58.638672 94.777344 C 57.476677 93.909349 55.831839 94.146646 54.964844 95.306641 C 54.185849 96.349636 54.301833 97.777505 55.173828 98.6875 L 55.150391 98.693359 C 55.150391 98.693359 57.114482 101.37387 44.685547 96.712891 L 44.712891 96.732422 C 42.330901 95.617427 40.026876 94.248318 37.837891 92.611328 C 35.549952 90.901333 33.516834 88.97824 31.714844 86.90625 C 23.974879 76.5743 27.498047 78.017578 27.498047 78.017578 L 27.496094 77.992188 C 28.615089 78.570183 30.020833 78.280276 30.798828 77.238281 C 31.667823 76.077286 31.428573 74.430495 30.267578 73.5625 C 29.819583 73.2275 29.299995 73.059422 28.78125 73.044922 z M 22.132812 75.757812 C 22.132812 75.757813 10.970698 79.185224 9.8457031 80.699219 C 5.7247236 86.255189 6.9715245 96.828175 24.773438 110.03711 C 42.574348 123.24606 53.326364 121.78014 57.527344 116.11719 C 58.643339 114.61219 59.021484 103.1543 59.021484 103.1543 C 59.021484 103.1543 51.765482 108.48214 35.101562 96.117188 C 18.437647 83.753248 22.132812 75.757813 22.132812 75.757812 z M 64.931641 94.277344 C 64.426188 94.285508 63.91778 94.439954 63.472656 94.751953 C 62.554661 95.392948 62.1805 96.513114 62.4375 97.537109 L 62.390625 97.523438 C 62.390625 97.523438 62.866978 103.51147 71.210938 101.47852 L 71.410156 101.43945 C 74.226228 100.75366 76.912423 99.78 79.521484 98.5 L 79.521484 96.177734 C 78.557714 96.675706 77.58394 97.142696 76.595703 97.556641 C 64.360763 101.67064 66.833984 98.777344 66.833984 98.777344 L 66.810547 98.769531 C 67.709542 97.887536 67.872948 96.463428 67.126953 95.398438 C 66.608207 94.655939 65.774059 94.263736 64.931641 94.277344 z M 79.521484 101.24023 C 68.219879 107.02005 63.630859 102.92383 63.630859 102.92383 C 63.630859 102.92383 63.566742 114.6 64.677734 116.125 C 68.338751 121.15595 77.192171 123.21568 91.976562 114.09375 L 91.976562 112.64648 L 80.708984 112.64648 L 80.708984 108.63281 L 79.521484 108.63281 L 79.521484 101.24023 z " />&#10;&#10;&#10;&#10;&#10;&#10;&#10;&#10;<path
   style="fill:#ffffff;fill-opacity:1;stroke:none;stroke-width:0.853033;stroke-linecap:round;stroke-linejoin:round"
   d="M 106.43419,85.49015 V 63.636653 h 5.64993 5.64993 v 21.853497 21.8535 h -5.64993 -5.64993 z"
   id="path3" /><path
   style="fill:#ffffff;fill-opacity:1;stroke:none;stroke-width:0.853033;stroke-linecap:round;stroke-linejoin:round"
   d="M 87.032554,85.063741 V 63.210243 h 5.649929 5.649928 v 21.853498 21.853499 h -5.649928 -5.649929 z"
   id="path4" /></svg>
